<svg xmlns="http://www.w3.org/2000/svg" xmlns:xlink="http://www.w3.org/1999/xlink" version="1.1" id="Capa_1" x="0px" y="0px" viewBox="0 0 195 35" style="enable-background:new 0 0 195 35;" xml:space="preserve">
<style type="text/css">
	.st0{fill:#FBFBFB;}
</style>
<g id="Layer_1-2">
	<g>
		<path class="st0" d="M117.8,21h-5.9l-1.4,4h-2.8l5.6-15.1h3l5.6,15.1h-2.8L117.8,21L117.8,21z M117,19l-1.8-5.1    c-0.2-0.5-0.3-1-0.4-1.6h0c-0.1,0.7-0.3,1.1-0.4,1.6l-1.8,5.1H117L117,19z"/>
		<path class="st0" d="M123.3,14.4h2.4v2.1c0.7-1.6,1.9-2.3,3.5-2.3c2.3,0,3.5,1.5,3.5,4.3V25h-2.6v-6.4c0-1.7-0.6-2.5-2-2.5    c-1.5,0-2.4,1.2-2.4,3.2V25h-2.6L123.3,14.4L123.3,14.4z"/>
		<path class="st0" d="M134.3,22.1c0-1,0.4-1.9,1.3-2.4c0.8-0.4,1.8-0.7,3.5-1l2.3-0.3v-0.3c0-1.6-0.6-2.3-2-2.3    c-1.3,0-2,0.7-2.1,1.9h-2.6c0.2-2.3,2-3.7,4.7-3.7c3.2,0,4.6,1.3,4.6,4.4v3.2c0,1.5,0.1,2.6,0.3,3.3h-2.6    c-0.1-0.5-0.1-1.2-0.2-1.8c-0.5,1.3-1.9,2.1-3.6,2.1C135.8,25.3,134.3,24,134.3,22.1L134.3,22.1z M141.4,20.7V20l-2.4,0.4    c-1.4,0.2-2,0.7-2,1.7s0.7,1.5,1.8,1.5C140.4,23.5,141.4,22.4,141.4,20.7L141.4,20.7z"/>
		<path class="st0" d="M149,25h-2.6V9.6h2.6V25z"/>
		<path class="st0" d="M150.7,29.2v-2c0.4,0,0.7,0.1,1,0.1c1.2,0,1.9-0.5,2.2-1.7l0.2-0.6L150,14.4h2.8l2.3,7    c0.2,0.5,0.3,0.9,0.3,1.3h0c0-0.3,0.1-0.7,0.3-1.3l2.1-7h2.7l-4,11.3c-1,2.7-2.4,3.7-4.7,3.7C151.6,29.3,151.2,29.3,150.7,29.2    L150.7,29.2z"/>
		<path class="st0" d="M161.3,14.4h1.9v-2.7l2.6-1v3.7h2.6v1.9h-2.6v5.1c0,1.2,0.5,1.7,1.6,1.7c0.4,0,0.7,0,1-0.1V25    c-0.6,0.1-1.1,0.2-1.8,0.2c-2.6,0-3.4-1.3-3.4-3.5v-5.5h-1.9L161.3,14.4L161.3,14.4z"/>
		<path class="st0" d="M169.7,9.9h2.8v2.7h-2.8V9.9z M169.8,14.4h2.6V25h-2.6V14.4L169.8,14.4z"/>
		<path class="st0" d="M174.2,19.7c0-3.5,2-5.6,5.2-5.6c2.6,0,4.4,1.4,4.7,3.8l-2.5,0.4c-0.2-1.5-1-2.2-2.3-2.2    c-1.6,0-2.6,1.3-2.6,3.5s1,3.6,2.6,3.6c1.3,0,2.1-0.8,2.3-2.3l2.4,0.5c-0.4,2.4-2.2,3.8-4.7,3.8C176.3,25.3,174.2,23.1,174.2,19.7    L174.2,19.7z"/>
		<path class="st0" d="M184.8,22.2l1.9-0.9c0.5,1.4,1.6,2.1,3.1,2.1c1.3,0,2-0.5,2-1.3c0-0.9-0.4-1.2-1.6-1.4l-1.6-0.2    c-2.2-0.3-3.2-1.4-3.2-3.2c0-2,1.6-3.2,4.3-3.2c2.3,0,4,1,4.6,2.7l-1.8,1c-0.5-1.1-1.5-1.8-2.9-1.8c-1.2,0-1.9,0.4-1.9,1.3    c0,0.7,0.5,1.2,1.6,1.3l1.8,0.3c2.2,0.3,3.1,1.4,3.1,3.2c0,2.1-1.6,3.4-4.4,3.4C187.3,25.3,185.5,24.2,184.8,22.2L184.8,22.2z"/>
	</g>
	<g>
		<path class="st0" d="M54.5,20.9c0,2.1-1.4,4.2-5.1,4.2h-6.4V9.9h6c3.7,0,5,2,5,4c0,1.5-0.9,2.8-2.6,3.3    C53.4,17.5,54.5,18.9,54.5,20.9L54.5,20.9z M45.9,12v4.3h2.8c2.1,0,2.6-1.1,2.6-2.1c0-1.1-0.6-2.2-2.6-2.2H45.9z M51.7,20.6    c0-1.3-0.8-2.3-2.6-2.3h-3.2V23H49C51,23,51.7,21.9,51.7,20.6z"/>
		<path class="st0" d="M56.4,10h2.8v2.7h-2.8V10z M56.6,14.4h2.6v10.7h-2.6V14.4z"/>
		<path class="st0" d="M61,19.7c0-3.6,2.2-5.6,5.2-5.6c3.1,0,5.2,2,5.2,5.6s-2.2,5.6-5.2,5.6C63.1,25.3,61,23.3,61,19.7z M68.8,19.7    c0-2.4-1-3.6-2.6-3.6s-2.6,1.2-2.6,3.6s1,3.7,2.6,3.7S68.8,22.2,68.8,19.7z"/>
		<path class="st0" d="M75.6,23.4l-0.3,1.7h-2.2V9.6h2.6v6.5c0.6-1.1,1.7-1.9,3.3-1.9c2.6,0,4.3,2.3,4.3,5.6s-1.7,5.6-4.4,5.6    C77.4,25.3,76.2,24.6,75.6,23.4L75.6,23.4z M80.7,19.8c0-2.2-0.9-3.6-2.5-3.6c-1.5,0-2.4,1.3-2.4,3.3v0.7c0,2,0.9,3.2,2.4,3.2    S80.7,22,80.7,19.8z"/>
		<path class="st0" d="M84.4,19.7c0-3.6,2.2-5.6,5.2-5.6s5.2,2,5.2,5.6s-2.2,5.6-5.2,5.6S84.4,23.3,84.4,19.7z M92.2,19.7    c0-2.4-1-3.6-2.6-3.6c-1.6,0-2.6,1.2-2.6,3.6s1,3.7,2.6,3.7S92.2,22.2,92.2,19.7z"/>
		<path class="st0" d="M95,14.4h1.9v-2.7l2.6-1v3.7h2.6v1.9h-2.6v5.1c0,1.2,0.5,1.7,1.6,1.7c0.4,0,0.7,0,1-0.1v2.2    c-0.6,0.1-1.1,0.2-1.8,0.2c-2.6,0-3.4-1.3-3.4-3.5v-5.5H95V14.4L95,14.4z"/>
	</g>
	<path class="st0" d="M32.3,2.6v29.8H2.6V2.6H32.3 M34.1,0.8H0.8v33.4h33.4V0.8L34.1,0.8z"/>
	<path class="st0" d="M6.7,27.3v-7.6h2.6c0.9,0,1.7,0.2,2.2,0.5c0.5,0.3,0.8,0.9,0.8,1.6c0,0.4-0.1,0.7-0.3,1   c-0.2,0.3-0.4,0.5-0.8,0.6c0.4,0.1,0.8,0.3,1,0.6s0.3,0.7,0.3,1.1c0,0.7-0.2,1.3-0.7,1.7c-0.5,0.4-1.2,0.6-2.1,0.6   C9.7,27.3,6.7,27.3,6.7,27.3z M8.5,22.9h0.9c0.4,0,0.7-0.1,0.9-0.2c0.2-0.1,0.3-0.4,0.3-0.7c0-0.3-0.1-0.6-0.3-0.7   c-0.2-0.1-0.5-0.2-0.9-0.2H8.5V22.9z M8.5,24V26h1.2c0.4,0,0.7-0.1,0.8-0.2c0.2-0.1,0.3-0.4,0.3-0.7c0-0.3-0.1-0.6-0.2-0.7   c-0.2-0.2-0.4-0.3-0.8-0.3L8.5,24L8.5,24z"/>
	<path class="st0" d="M6.7,15.3V7.7h2.6c0.9,0,1.7,0.2,2.2,0.5c0.5,0.3,0.8,0.9,0.8,1.6c0,0.4-0.1,0.7-0.3,1   c-0.2,0.3-0.4,0.5-0.8,0.6c0.4,0.1,0.8,0.3,1,0.6s0.3,0.7,0.3,1.1c0,0.7-0.2,1.3-0.7,1.7c-0.5,0.4-1.2,0.6-2.1,0.6   C9.7,15.3,6.7,15.3,6.7,15.3z M8.5,10.9h0.9c0.4,0,0.7-0.1,0.9-0.2c0.2-0.1,0.3-0.4,0.3-0.7c0-0.3-0.1-0.6-0.3-0.7   C10.1,9.1,9.8,9,9.3,9H8.5V10.9z M8.5,12v1.9h1.2c0.4,0,0.7-0.1,0.8-0.2c0.2-0.1,0.3-0.4,0.3-0.7c0-0.3-0.1-0.6-0.2-0.7   c-0.2-0.2-0.4-0.3-0.8-0.3L8.5,12L8.5,12z"/>
	<path class="st0" d="M20.7,24.2c0,0.9-0.3,1.7-0.9,2.3c-0.6,0.6-1.4,0.9-2.3,0.9s-1.7-0.3-2.3-0.9c-0.6-0.6-0.9-1.4-0.9-2.3v-1.4   c0-0.9,0.3-1.7,0.9-2.3s1.4-0.9,2.3-0.9s1.7,0.3,2.3,0.9c0.6,0.6,0.9,1.4,0.9,2.3V24.2z M18.9,22.8c0-0.5-0.1-1-0.4-1.3   c-0.3-0.3-0.6-0.5-1.1-0.5s-0.8,0.2-1.1,0.5c-0.3,0.3-0.4,0.8-0.4,1.3v1.4c0,0.5,0.1,1,0.4,1.3c0.3,0.3,0.6,0.5,1.1,0.5   s0.8-0.2,1.1-0.5s0.4-0.8,0.4-1.3L18.9,22.8L18.9,22.8z"/>
	<path class="st0" d="M27.8,21.1h-2v6.2H24v-6.2h-2v-1.4h5.8C27.8,19.7,27.8,21.1,27.8,21.1z"/>
	<path class="st0" d="M18.3,15.3h-1.8V7.7h1.8V15.3z"/>
	<path class="st0" d="M28.2,12.2c0,0.9-0.3,1.7-0.9,2.3c-0.6,0.6-1.4,0.9-2.3,0.9s-1.7-0.3-2.3-0.9s-0.9-1.4-0.9-2.3v-1.4   c0-0.9,0.3-1.7,0.9-2.3s1.4-0.9,2.3-0.9s1.7,0.3,2.3,0.9c0.6,0.6,0.9,1.4,0.9,2.3L28.2,12.2L28.2,12.2z M26.4,10.8   c0-0.5-0.1-1-0.4-1.3c-0.3-0.3-0.6-0.5-1.1-0.5s-0.8,0.2-1.1,0.5c-0.3,0.3-0.4,0.8-0.4,1.3v1.4c0,0.5,0.1,1,0.4,1.3   c0.3,0.3,0.6,0.5,1.1,0.5c0.5,0,0.8-0.2,1.1-0.5c0.3-0.3,0.4-0.8,0.4-1.3L26.4,10.8L26.4,10.8z"/>
</g>
</svg>